# xmcd CD database file
#
# Track frame offsets:
#	150
#	14115
#	29295
#	49017
#	68737
#	82915
#	98745
#	112835
#	130397
#	144772
#	163800
#	178785
#
# Disc length: 2621 seconds
#
# Revision: 1
# Processed by: cddbd v1.4PL0 Copyright (c) Steve Scherf et al.
# Submitted via: CDex 1.50
#
DISCID=980a3b0c
DTITLE=Green Hill Instrumental - Country Mountain Classics
DYEAR=1994
DGENRE=Country
TTITLE0=Country Road
TTITLE1=Rocky Top
TTITLE2=King of the Road
TTITLE3=Green, Green Grass of Home
TTITLE4=The 8th of January
TTITLE5=Could I Have this Dance
TTITLE6=Walkin' After Midnight
TTITLE7=Blue Eyes Cryin' in the Rain
TTITLE8=Dueling Banjos
TTITLE9=I'm So Lonesome I Could Cry
TTITLE10=Kawliga
TTITLE11=Last Date
EXTD=YEAR: 1994
EXTT0=
EXTT1=
EXTT2=
EXTT3=
EXTT4=
EXTT5=
EXTT6=
EXTT7=
EXTT8=
EXTT9=
EXTT10=
EXTT11=
PLAYORDER=
